<svg width="48" xmlns="http://www.w3.org/2000/svg" height="48" id="screenshot-65e74491-e4b7-801e-8006-6402e92a2262" viewBox="0 0 48 48" xmlns:xlink="http://www.w3.org/1999/xlink" fill="none" version="1.1"><g id="shape-65e74491-e4b7-801e-8006-6402e92a2262" width="800" height="800" rx="0" ry="0" style="fill: rgb(0, 0, 0);"><g id="shape-65e74491-e4b7-801e-8006-6402e92a2263" style="display: none;"><g class="fills" id="fills-65e74491-e4b7-801e-8006-6402e92a2263"><rect width="48" height="48" x="0" transform="matrix(1.000000, 0.000000, 0.000000, 1.000000, 0.000000, 0.000000)" style="fill: rgb(192, 167, 122); fill-opacity: 1;" ry="0" fill="none" rx="0" y="0"/></g></g><g id="shape-65e74491-e4b7-801e-8006-6402e92a2264"><g class="fills" id="fills-65e74491-e4b7-801e-8006-6402e92a2264"><path d="M32.925,7.508L27.966,7.502C23.157,7.502,20.050,10.688,20.050,15.624L20.050,19.367L15.075,19.367L15.075,26.139L20.050,26.139L20.044,40.502L27.006,40.502L27.012,26.139L32.721,26.139L32.716,19.368L27.012,19.368L27.012,16.193C27.012,14.666,27.373,13.893,29.361,13.893L32.910,13.892L32.925,7.508ZZ" style="fill: rgb(192, 167, 122); fill-opacity: 1;"/></g></g></g></svg>