<svg width="51" xmlns="http://www.w3.org/2000/svg" height="51" id="screenshot-65e74491-e4b7-801e-8006-6402e92a225e" viewBox="0 0 51 51" xmlns:xlink="http://www.w3.org/1999/xlink" fill="none" version="1.1"><g id="shape-65e74491-e4b7-801e-8006-6402e92a225e" width="800" height="800" rx="0" ry="0" style="fill: rgb(0, 0, 0);"><g id="shape-65e74491-e4b7-801e-8006-6402e92a225f" style="display: none;"><g class="fills" id="fills-65e74491-e4b7-801e-8006-6402e92a225f"><rect width="51" height="50.99999999999909" x="0" transform="matrix(1.000000, 0.000000, 0.000000, 1.000000, 0.000000, 0.000000)" style="fill: none;" ry="0" fill="none" rx="0" y="0"/></g></g><g id="shape-65e74491-e4b7-801e-8006-6402e92a2260"><g class="fills" id="fills-65e74491-e4b7-801e-8006-6402e92a2260"><path d="M32.584,7.969L18.414,7.969C12.647,7.973,7.973,12.647,7.969,18.414L7.969,32.584C7.972,38.352,12.647,43.027,18.414,43.031L32.584,43.031C38.352,43.026,43.025,38.352,43.030,32.584L43.030,18.414C43.027,12.646,38.352,7.971,32.584,7.969ZZM39.504,32.584C39.503,36.406,36.406,39.503,32.584,39.504L18.414,39.504C16.579,39.504,14.819,38.775,13.522,37.477C12.224,36.180,11.495,34.419,11.496,32.584L11.496,18.414C11.495,16.579,12.224,14.819,13.522,13.522C14.819,12.224,16.579,11.495,18.414,11.496L32.584,11.496C36.405,11.497,39.502,14.594,39.503,18.414L39.504,32.584ZZ" style="fill: rgb(192, 167, 122); fill-opacity: 1;"/></g></g><g id="shape-65e74491-e4b7-801e-8006-6402e92a2261"><g class="fills" id="fills-65e74491-e4b7-801e-8006-6402e92a2261"><path d="M25.500,16.435C20.499,16.435,16.435,20.500,16.435,25.500C16.435,30.500,20.500,34.565,25.500,34.565C30.500,34.565,34.565,30.500,34.565,25.500C34.565,20.500,30.501,16.435,25.500,16.435ZZM25.500,31.038C22.441,31.039,19.961,28.560,19.961,25.501C19.960,22.442,22.440,19.962,25.498,19.962C28.557,19.961,31.037,22.440,31.037,25.499C31.038,28.558,28.559,31.038,25.500,31.038ZZM34.584,14.329C35.784,14.330,36.755,15.303,36.755,16.502C36.755,17.702,35.783,18.674,34.583,18.674C33.384,18.674,32.411,17.703,32.410,16.503C32.410,15.305,33.223,14.329,34.584,14.329ZZ" style="fill: rgb(192, 167, 122); fill-opacity: 1;"/></g></g></g></svg>