<svg xmlns="http://www.w3.org/2000/svg" viewBox="0 0 1036.8936 864.078"><g id="Layer_2" data-name="Layer 2"><g id="Layer_2-2" data-name="Layer 2"><path d="M691.2624,86.4078a86.4284,86.4284,0,0,1-86.4078,86.4078H345.6312V345.6312h46.26a343.879,343.879,0,0,0-46.26,172.8156A172.8089,172.8089,0,0,1,172.8156,345.6312V172.8156H86.4078A86.4078,86.4078,0,0,1,86.4078,0H604.8546A86.4147,86.4147,0,0,1,691.2624,86.4078Z" style="fill:#c0a77a"/><path d="M1036.8936,518.4468A345.5234,345.5234,0,0,1,691.2624,864.078H316.8286c-79.5432,0-144.013-38.6915-144.013-86.4078,0-23.8582,16.1135-45.46,42.18-61.0935,26.05-15.6495,62.0536-25.3143,101.8332-25.3143H691.2624v-1.6c96.6544,0,174.86-80.5048,171.0843-177.9823-3.4419-88.8606-75.4569-160.8756-164.3175-164.3175-76.6565-2.9691-142.8166,44.7612-167.5825,112.2931a89.2286,89.2286,0,0,1-83.6678,58.7912H345.6312a345.6312,345.6312,0,1,1,691.2624,0Z" style="fill:#2d1d0f"/><rect x="604.8546" y="432.039" width="172.8156" height="172.8156" rx="86.4077" style="fill:#c0a77a"/></g></g></svg>