<svg width="30" xmlns="http://www.w3.org/2000/svg" height="30" id="screenshot-65e74491-e4b7-801e-8006-63fed6655805" viewBox="0 0 30 30" xmlns:xlink="http://www.w3.org/1999/xlink" fill="none" version="1.1"><g id="shape-65e74491-e4b7-801e-8006-63fed6655805" width="800" height="800" rx="0" ry="0" style="fill: rgb(0, 0, 0);"><g id="shape-65e74491-e4b7-801e-8006-63fed6655806" style="display: none;"><g class="fills" id="fills-65e74491-e4b7-801e-8006-63fed6655806"><rect width="30" height="30" x="0" transform="matrix(1.000000, 0.000000, 0.000000, 1.000000, 0.000000, 0.000000)" style="fill: none;" ry="0" fill="none" rx="0" y="0"/></g></g><g id="shape-65e74491-e4b7-801e-8006-63fed6655807"><g class="fills" id="fills-65e74491-e4b7-801e-8006-63fed6655807"><path d="M21.840,17.977C21.469,17.791,19.642,16.894,19.302,16.769C18.961,16.645,18.714,16.584,18.465,16.956C18.219,17.328,17.506,18.164,17.290,18.411C17.074,18.660,16.856,18.690,16.485,18.505C16.114,18.318,14.916,17.926,13.497,16.661C12.394,15.676,11.648,14.460,11.431,14.088C11.215,13.716,11.409,13.515,11.594,13.330C11.761,13.164,11.966,12.896,12.151,12.680C12.337,12.462,12.399,12.307,12.524,12.059C12.648,11.811,12.586,11.595,12.493,11.409C12.399,11.222,11.656,9.394,11.347,8.650C11.045,7.926,10.739,8.025,10.511,8.012C10.295,8.003,10.047,8.000,9.799,8.000C9.551,8.000,9.149,8.093,8.809,8.465C8.469,8.836,7.509,9.735,7.509,11.564C7.509,13.391,8.840,15.158,9.025,15.406C9.211,15.654,11.645,19.406,15.371,21.015C16.257,21.398,16.949,21.626,17.489,21.796C18.379,22.080,19.189,22.040,19.827,21.944C20.541,21.837,22.025,21.045,22.335,20.177C22.645,19.310,22.645,18.566,22.551,18.411C22.459,18.256,22.211,18.164,21.840,17.977ZM15.063,27.231L15.063,27.231ZC12.845,27.231,10.673,26.636,8.769,25.509L8.318,25.241L3.641,26.469L4.889,21.909L4.595,21.441C3.358,19.472,2.704,17.192,2.707,14.866C2.709,8.054,8.252,2.511,15.068,2.511C18.367,2.511,21.470,3.799,23.802,6.134C26.127,8.448,27.429,11.596,27.419,14.876C27.415,21.689,21.872,27.231,15.063,27.231ZM25.579,4.360C22.797,1.560,19.010,-0.010,15.063,0.000C6.869,0.000,0.200,6.669,0.196,14.865C0.196,17.485,0.880,20.043,2.181,22.296L0.071,30.000L7.952,27.932C10.132,29.120,12.574,29.742,15.056,29.743L15.063,29.743C23.255,29.743,29.925,23.074,29.929,14.876C29.941,10.931,28.375,7.144,25.579,4.360ZZ" style="fill: rgb(238, 243, 240); fill-opacity: 1;"/></g></g></g></svg>